<?xml version="1.0" encoding="UTF-8" standalone="no"?>
<!-- Created with Inkscape (http://www.inkscape.org/) -->

<svg
   width="1024"
   height="500"
   viewBox="0 0 1024 500"
   version="1.1"
   id="svg5"
   inkscape:version="1.2 (dc2aedaf03, 2022-05-15)"
   sodipodi:docname="feature-graphic.svg"
   inkscape:export-filename="feature-graphic.png"
   inkscape:export-xdpi="96"
   inkscape:export-ydpi="96"
   xmlns:inkscape="http://www.inkscape.org/namespaces/inkscape"
   xmlns:sodipodi="http://sodipodi.sourceforge.net/DTD/sodipodi-0.dtd"
   xmlns="http://www.w3.org/2000/svg"
   xmlns:svg="http://www.w3.org/2000/svg"
   xmlns:rdf="http://www.w3.org/1999/02/22-rdf-syntax-ns#"
   xmlns:cc="http://creativecommons.org/ns#"
   xmlns:dc="http://purl.org/dc/elements/1.1/">
  <title
     id="title11">Feature graphic</title>
  <sodipodi:namedview
     id="namedview7"
     pagecolor="#ffffff"
     bordercolor="#ffffff"
     borderopacity="1.0"
     inkscape:showpageshadow="2"
     inkscape:pageopacity="0.0"
     inkscape:pagecheckerboard="0"
     inkscape:deskcolor="#d1d1d1"
     inkscape:document-units="px"
     showgrid="false"
     inkscape:zoom="1"
     inkscape:cx="502"
     inkscape:cy="252"
     inkscape:window-width="1920"
     inkscape:window-height="1027"
     inkscape:window-x="1912"
     inkscape:window-y="78"
     inkscape:window-maximized="1"
     inkscape:current-layer="layer1" />
  <defs
     id="defs2">
    <rect
       x="416"
       y="111"
       width="3"
       height="149"
       id="rect394" />
    <rect
       x="422"
       y="122"
       width="1"
       height="66"
       id="rect384" />
    <rect
       x="985"
       y="27"
       width="460"
       height="212"
       id="rect378" />
    <rect
       x="417"
       y="142"
       width="39"
       height="51"
       id="rect325" />
  </defs>
  <g
     inkscape:groupmode="layer"
     id="layer3"
     inkscape:label="Background">
    <rect
       style="fill:#e3f2fd;fill-opacity:1"
       id="rect249"
       width="1024"
       height="500"
       x="0"
       y="0" />
  </g>
  <g
     inkscape:label="Vrstva 1"
     inkscape:groupmode="layer"
     id="layer1"
     style="display:inline">
    <path
       fill="#d50000"
       d="m 160,110 c -5,0 -10,2 -12,7 l -54,94 c -5.7,9 1.4,21 12,21 h 34 v 59 c 0,9 3,16 9,21 v 17 c 0,5 5,10 9,10 h 10 c 6,0 10,-5 10,-10 v -9 h 76 v 9 c 0,5 4,10 9,10 h 10 c 5,0 9,-5 9,-10 v -17 c 6,-5 10,-12 10,-21 v -95 c 0,-33 -34,-38 -76,-38 -7,0 -14,0 -20,0 l -23,-41 c -3,-5 -7,-7 -13,-7 z m -2,24 h 4 c 4,0 7,3 7,7 v 33 c 0,4 -3,7 -7,7 h -4 c -4,0 -7,-3 -7,-7 v -33 c 0,-4 3,-7 7,-7 z m -7,62 h 18 v 18 h -18 z m 67,0 h 55 v 48 H 158 v -12 h 56 c 12,0 18,-12 12,-21 z m -45,76 c 8,0 14,6 14,14 0,8 -6,14 -14,14 -8,0 -15,-6 -15,-14 0,-8 7,-14 15,-14 z m 85,0 c 8,0 15,6 15,14 0,8 -7,14 -15,14 -8,0 -14,-6 -14,-14 0,-8 6,-14 14,-14 z"
       id="path16-8"
       style="stroke-width:4.76162" />
    <text
       xml:space="preserve"
       style="font-size:85.333px;line-height:1.25;font-family:Roboto;-inkscape-font-specification:Roboto;letter-spacing:0px;word-spacing:0px"
       x="347"
       y="230"
       id="text271"><tspan
         id="tspan269"
         x="347"
         y="230"
         sodipodi:role="line"
         style="font-style:normal;font-variant:normal;font-weight:bold;font-stretch:normal;font-size:85.333px;font-family:Roboto;-inkscape-font-specification:'Roboto Bold'">Mimořádnosti</tspan></text>
    <text
       xml:space="preserve"
       style="font-size:40px;line-height:1.25;font-family:Roboto;-inkscape-font-specification:'Roboto weight=250';letter-spacing:0px;word-spacing:0px"
       x="347"
       y="312"
       id="text400"><tspan
         sodipodi:role="line"
         id="tspan398"
         x="347"
         y="312">v pražské integrované dopravě</tspan></text>
  </g>
  <metadata
     id="metadata9">
    <rdf:RDF>
      <cc:Work
         rdf:about="">
        <dc:title>Feature graphic</dc:title>
      </cc:Work>
    </rdf:RDF>
  </metadata>
</svg>
