<?xml version="1.0" encoding="UTF-8" standalone="no"?>
<svg xmlns="http://www.w3.org/2000/svg"
   width="470"
   height="510"
   viewBox="0 0 47 51">
  <path
     fill="#d50000"
     d="m 14.3,0 c -1,0 -2,0.501 -2.6,1.5 L 0.408,21.1 c -1.158,2 0.286,4.5 2.602,4.5 H 10 V 38 c 0,1.8 0.8,3.3 2,4.4 V 46 c 0,1.1 0.9,2 2,2 h 2 c 1.1,0 2,-0.9 2,-2 v -2 h 16 v 2 c 0,1.1 0.9,2 2,2 h 2 c 1.1,0 2,-0.9 2,-2 v -3.6 c 1.2,-1.1 2,-2.6 2,-4.4 V 18 c 0,-7 -7.2,-8 -16,-8 -1.4,0 -2.8,0 -4.1,0.1 l -5,-8.6 C 16.4,0.501 15.4,0 14.3,0 Z m -0.4,5.01 h 0.8 c 0.8,0 1.5,0.68 1.5,1.52 v 6.97 c 0,0.8 -0.7,1.5 -1.5,1.5 h -0.8 c -0.8,0 -1.5,-0.7 -1.5,-1.5 V 6.53 c 0,-0.84 0.7,-1.52 1.5,-1.52 z M 12.4,18 h 3.8 v 3.8 h -3.8 z m 14.1,0 H 38 V 28 H 14 v -2.4 h 11.7 c 2.3,0 3.7,-2.5 2.6,-4.5 z M 17,34 c 1.7,0 3,1.3 3,3 0,1.7 -1.3,3 -3,3 -1.7,0 -3,-1.3 -3,-3 0,-1.7 1.3,-3 3,-3 z m 18,0 c 1.7,0 3,1.3 3,3 0,1.7 -1.3,3 -3,3 -1.7,0 -3,-1.3 -3,-3 0,-1.7 1.3,-3 3,-3 z" />
</svg>
