<?xml version="1.0" encoding="UTF-8" standalone="no"?>
<svg
   xmlns="http://www.w3.org/2000/svg"
   width="24"
   height="24"
   viewBox="0 0 24 24">
  <path
     fill="none"
     d="M0 0h24v24H0V0z" />
  <path
     fill="#ffffff"
     d="m 12,1.3 c -0.4,0 -0.8,0.2 -1,0.59 L 0.402,21 c -0.435,0.8 0.115,1.8 0.998,1.8 h 21.2 c 0.9,0 1.4,-1 1,-1.8 L 13,1.89 C 12.8,1.5 12.4,1.3 12,1.3 Z m -0.1,6.28 h 0.3 c 0.5,0 1,0.42 1,0.98 V 14 c 0,0.5 -0.5,1 -1,1 h -0.3 c -0.6,0 -1,-0.5 -1,-1 V 8.56 c 0,-0.56 0.4,-0.98 1,-0.98 z m -1,9.22 h 2.2 v 2.3 h -2.2 z" />
</svg>
